<svg xmlns="http://www.w3.org/2000/svg" width="124" height="40" viewBox="0 0 124 40" fill="none">
<path d="M11.3079 28.2952C9.68889 28.2952 8.18791 28.1255 6.80499 27.7863C5.43893 27.43 4.24152 26.9211 3.21276 26.2595C2.20087 25.581 1.40822 24.7498 0.834813 23.7659C0.278271 22.782 0 21.6539 0 20.3817C0 20.246 0 20.1103 0 19.9746C0 19.8219 0 19.6947 0 19.5929H4.32585C4.32585 19.6947 4.32585 19.7795 4.32585 19.8473C4.32585 19.9152 4.32585 20.017 4.32585 20.1527C4.32585 21.5267 4.95828 22.5785 6.22315 23.3079C7.48802 24.0204 9.21667 24.3766 11.4091 24.3766C12.7583 24.3766 13.9641 24.2409 15.0266 23.9695C16.0891 23.698 16.9239 23.2824 17.5311 22.7226C18.1551 22.1628 18.4671 21.4589 18.4671 20.6107C18.4671 19.2027 17.8093 18.2019 16.4939 17.6081C15.1953 16.9975 13.2474 16.4716 10.6502 16.0305C9.28413 15.793 7.98553 15.4877 6.7544 15.1145C5.52326 14.7243 4.42704 14.2239 3.46574 13.6132C2.5213 13.0025 1.77082 12.2477 1.21427 11.3486C0.674596 10.4326 0.404758 9.33842 0.404758 8.06616C0.404758 6.42069 0.885408 5.02969 1.84671 3.89313C2.82487 2.73961 4.14034 1.86599 5.7931 1.27226C7.44586 0.661577 9.28413 0.356233 11.3079 0.356233C13.2643 0.356233 15.0688 0.670059 16.7216 1.29771C18.3743 1.92536 19.6982 2.84139 20.6932 4.0458C21.7051 5.23325 22.2111 6.70059 22.2111 8.44784C22.2111 8.51569 22.2111 8.60051 22.2111 8.70229C22.2111 8.78711 22.2111 8.87193 22.2111 8.95674H17.9105C17.9105 8.87193 17.9105 8.80407 17.9105 8.75318C17.9105 8.70229 17.9105 8.64292 17.9105 8.57506C17.9105 7.59118 17.5985 6.78541 16.9745 6.15776C16.3505 5.51315 15.541 5.03817 14.546 4.73282C13.551 4.41052 12.4885 4.24936 11.3585 4.24936C10.296 4.24936 9.2504 4.36811 8.22164 4.6056C7.19288 4.82612 6.34121 5.19932 5.66661 5.72519C4.99201 6.25106 4.65471 6.97201 4.65471 7.88804C4.65471 8.80407 4.96672 9.54198 5.59072 10.1018C6.23158 10.6446 7.12542 11.0941 8.27224 11.4504C9.43592 11.7897 10.802 12.1035 12.3704 12.3919C13.7702 12.6463 15.0941 12.9686 16.3421 13.3588C17.5901 13.732 18.6863 14.2154 19.6308 14.8092C20.5921 15.4029 21.3425 16.1578 21.8822 17.0738C22.4388 17.9729 22.717 19.0755 22.717 20.3817C22.717 21.7048 22.4135 22.8584 21.8063 23.8422C21.2161 24.8261 20.3897 25.6489 19.3272 26.3104C18.2816 26.972 17.0673 27.464 15.6844 27.7863C14.3183 28.1255 12.8595 28.2952 11.3079 28.2952Z" fill="#FFFFFF"/>
<path d="M24.2625 40V13.7913C24.2625 10.704 24.7516 8.14249 25.7298 6.10687C26.708 4.07125 28.0571 2.54453 29.7774 1.52672C31.5313 0.508905 33.5382 0 35.7981 0C38.4291 0 40.6721 0.576759 42.5272 1.73028C44.4161 2.84987 45.8496 4.47837 46.8278 6.61578C47.806 8.75318 48.295 11.3486 48.295 14.402C48.295 17.2858 47.7722 19.7795 46.7266 21.883C45.681 23.9525 44.2306 25.5471 42.3755 26.6667C40.554 27.7523 38.4628 28.2952 36.1017 28.2952C34.7525 28.2952 33.437 28.1086 32.1553 27.7354C30.8736 27.3282 29.7436 26.7515 28.7655 26.0051H28.5125C28.58 26.5479 28.6306 27.43 28.6643 28.6514C28.698 29.8728 28.7149 31.2468 28.7149 32.7735V40H24.2625ZM36.0511 24.5802C37.6701 24.5802 39.0531 24.19 40.1999 23.4097C41.3467 22.6293 42.2068 21.4928 42.7802 20C43.3873 18.4733 43.6909 16.6073 43.6909 14.402C43.6909 10.7718 42.9995 8.0916 41.6165 6.36132C40.2673 4.63104 38.2941 3.7659 35.6969 3.7659C33.437 3.7659 31.7168 4.61408 30.5363 6.31043C29.3557 7.97286 28.7655 10.4835 28.7655 13.8422V22.0865C29.7436 22.9347 30.8567 23.5623 32.1047 23.9695C33.3865 24.3766 34.7019 24.5802 36.0511 24.5802Z" fill="#FFFFFF"/>
<path d="M59.2978 28.2952C57.2572 28.2952 55.4695 27.9729 53.9348 27.3282C52.4169 26.6836 51.2364 25.7591 50.3931 24.5547C49.5499 23.3333 49.1283 21.8745 49.1283 20.1781C49.1283 18.4139 49.5836 16.9466 50.4943 15.7761C51.405 14.5886 52.6868 13.6641 54.3395 13.0025C55.9923 12.341 57.9149 11.8999 60.1073 11.6794C63.4128 11.3401 65.7655 11.0093 67.1653 10.687C68.5651 10.3478 69.265 9.80492 69.265 9.05852C69.265 9.04156 69.265 9.03308 69.265 9.03308C69.265 9.01612 69.265 8.99915 69.265 8.98219C69.265 7.42154 68.6325 6.25954 67.3677 5.49618C66.1028 4.71586 64.273 4.3257 61.8781 4.3257C59.3821 4.3257 57.4427 4.76675 56.0597 5.64885C54.6768 6.51399 53.9854 7.92197 53.9854 9.87277H49.7354C49.7354 7.85411 50.2498 6.1408 51.2785 4.73282C52.3073 3.30789 53.7324 2.22222 55.5538 1.47583C57.3921 0.729431 59.5086 0.356233 61.9034 0.356233C64.0959 0.356233 66.0691 0.695503 67.823 1.37404C69.5938 2.03562 70.9936 3.02799 72.0224 4.35114C73.068 5.65734 73.5908 7.27735 73.5908 9.2112C73.5908 9.56743 73.5908 9.92366 73.5908 10.2799C73.5908 10.6192 73.5908 10.9669 73.5908 11.3232V22.6972C73.5908 23.2909 73.6161 23.8677 73.6667 24.4275C73.7173 24.9873 73.8016 25.4792 73.9197 25.9033C74.0715 26.4122 74.2401 26.8278 74.4256 27.1501C74.6111 27.4555 74.7629 27.6675 74.881 27.7863H70.5551C70.4708 27.7014 70.3443 27.5064 70.1757 27.201C70.007 26.8787 69.8468 26.5055 69.695 26.0814C69.577 25.7422 69.4842 25.3181 69.4167 24.8092C69.3493 24.2833 69.3156 23.7405 69.3156 23.1807L70.0239 23.6641C69.5011 24.5802 68.7337 25.3859 67.7218 26.0814C66.7268 26.7769 65.521 27.3198 64.1043 27.7099C62.6877 28.1001 61.0855 28.2952 59.2978 28.2952ZM59.9808 24.402C61.7179 24.402 63.2864 24.1391 64.6861 23.6132C66.0859 23.0704 67.199 22.2731 68.0254 21.2214C68.8518 20.1696 69.265 18.8634 69.265 17.3028V11.9338L70.2263 13.5623C69.1469 13.9864 67.7977 14.3342 66.1787 14.6056C64.5765 14.8601 62.8985 15.0721 61.1445 15.2417C58.5979 15.4792 56.6753 15.9288 55.3767 16.5903C54.095 17.2519 53.4541 18.363 53.4541 19.9237C53.4541 21.3995 53.9854 22.5191 55.0479 23.2824C56.1103 24.0288 57.7547 24.402 59.9808 24.402Z" fill="#FFFFFF"/>
<path d="M94.9102 27.7863V14.8346C94.9102 14.0543 94.9102 13.4182 94.9102 12.9262C94.9102 12.4173 94.9102 11.9338 94.9102 11.4758C94.9102 10.0679 94.6741 8.838 94.2019 7.78626C93.7296 6.73452 92.9876 5.92027 91.9757 5.34351C90.9638 4.76675 89.6399 4.47837 88.004 4.47837C86.5705 4.47837 85.2381 4.85157 84.007 5.59796C82.7927 6.32739 81.8146 7.31976 81.0725 8.57506C80.3473 9.8134 79.9847 11.2044 79.9847 12.7481L77.5309 11.8066C77.5309 9.68617 78.0453 7.76081 79.074 6.03053C80.1196 4.30025 81.5026 2.92621 83.2228 1.90839C84.9599 0.87362 86.8487 0.356233 88.8894 0.356233C90.9638 0.356233 92.7768 0.754876 94.3283 1.55216C95.8799 2.34945 97.0773 3.49449 97.9206 4.98728C98.7807 6.4631 99.2107 8.24428 99.2107 10.3308C99.2107 11.0772 99.2107 11.8914 99.2107 12.7735C99.2107 13.6556 99.2107 14.4784 99.2107 15.2417V27.7863H94.9102ZM75.6842 27.7863V0.763357H79.9847V27.7863H75.6842Z" fill="#FFFFFF"/>
<path d="M111.924 28.2952C110.305 28.2952 108.804 28.1255 107.421 27.7863C106.055 27.43 104.858 26.9211 103.829 26.2595C102.817 25.581 102.025 24.7498 101.451 23.7659C100.895 22.782 100.616 21.6539 100.616 20.3817C100.616 20.246 100.616 20.1103 100.616 19.9746C100.616 19.8219 100.616 19.6947 100.616 19.5929H104.942C104.942 19.6947 104.942 19.7795 104.942 19.8473C104.942 19.9152 104.942 20.017 104.942 20.1527C104.942 21.5267 105.575 22.5785 106.839 23.3079C108.104 24.0204 109.833 24.3766 112.025 24.3766C113.375 24.3766 114.58 24.2409 115.643 23.9695C116.705 23.698 117.54 23.2824 118.147 22.7226C118.771 22.1628 119.083 21.4589 119.083 20.6107C119.083 19.2027 118.426 18.2019 117.11 17.6081C115.812 16.9975 113.864 16.4716 111.266 16.0305C109.9 15.793 108.602 15.4877 107.371 15.1145C106.14 14.7243 105.043 14.2239 104.082 13.6132C103.138 13.0025 102.387 12.2477 101.831 11.3486C101.291 10.4326 101.021 9.33842 101.021 8.06616C101.021 6.42069 101.502 5.02969 102.463 3.89313C103.441 2.73961 104.757 1.86599 106.409 1.27226C108.062 0.661577 109.9 0.356233 111.924 0.356233C113.881 0.356233 115.685 0.670059 117.338 1.29771C118.991 1.92536 120.315 2.84139 121.31 4.0458C122.321 5.23325 122.827 6.70059 122.827 8.44784C122.827 8.51569 122.827 8.60051 122.827 8.70229C122.827 8.78711 122.827 8.87193 122.827 8.95674H118.527C118.527 8.87193 118.527 8.80407 118.527 8.75318C118.527 8.70229 118.527 8.64292 118.527 8.57506C118.527 7.59118 118.215 6.78541 117.591 6.15776C116.967 5.51315 116.157 5.03817 115.162 4.73282C114.167 4.41052 113.105 4.24936 111.975 4.24936C110.912 4.24936 109.867 4.36811 108.838 4.6056C107.809 4.82612 106.958 5.19932 106.283 5.72519C105.608 6.25106 105.271 6.97201 105.271 7.88804C105.271 8.80407 105.583 9.54198 106.207 10.1018C106.848 10.6446 107.742 11.0941 108.889 11.4504C110.052 11.7897 111.418 12.1035 112.987 12.3919C114.386 12.6463 115.71 12.9686 116.958 13.3588C118.206 13.732 119.303 14.2154 120.247 14.8092C121.208 15.4029 121.959 16.1578 122.499 17.0738C123.055 17.9729 123.333 19.0755 123.333 20.3817C123.333 21.7048 123.03 22.8584 122.423 23.8422C121.832 24.8261 121.006 25.6489 119.943 26.3104C118.898 26.972 117.684 27.464 116.301 27.7863C114.935 28.1255 113.476 28.2952 111.924 28.2952Z" fill="#FFFFFF"/>
</svg>