<?xml version="1.0" standalone="no"?>
<!DOCTYPE svg PUBLIC "-//W3C//DTD SVG 20010904//EN"
 "http://www.w3.org/TR/2001/REC-SVG-20010904/DTD/svg10.dtd">
<svg version="1.0" xmlns="http://www.w3.org/2000/svg"
 width="700.000000pt" height="700.000000pt" viewBox="0 0 700.000000 700.000000"
 preserveAspectRatio="xMidYMid meet">
<metadata>
Created by potrace 1.14, written by Peter Selinger 2001-2017
</metadata>
<g transform="translate(0.000000,700.000000) scale(0.100000,-0.100000)"
fill="#000000" stroke="none">
<path d="M6476 6820 c-178 -14 -499 -62 -581 -86 -310 -90 -629 -197 -655
-218 -8 -7 -31 -19 -50 -26 -75 -28 -314 -151 -399 -204 -22 -15 -43 -26 -46
-26 -5 0 -289 -184 -308 -200 -7 -6 -55 -43 -107 -82 -276 -207 -603 -532
-845 -838 -103 -130 -121 -154 -155 -205 -53 -79 -54 -79 -98 -56 -57 29 -152
51 -221 51 -69 0 -190 -23 -248 -46 -57 -23 -187 -86 -193 -94 -3 -3 -27 -19
-54 -34 -26 -16 -56 -34 -65 -41 -9 -8 -52 -42 -96 -76 -127 -99 -298 -269
-461 -458 -16 -19 -34 -39 -39 -45 -61 -65 -296 -382 -430 -579 l-80 -118 35
-27 c19 -15 38 -27 41 -27 4 0 29 20 56 45 50 47 178 160 227 201 16 13 34 29
40 35 6 5 61 50 121 98 61 48 119 95 130 104 39 32 201 149 281 203 232 155
385 228 499 236 58 4 73 2 91 -13 11 -11 23 -26 26 -34 7 -20 -74 -170 -90
-167 -8 1 -32 -45 -64 -123 -27 -69 -77 -190 -110 -270 -33 -80 -62 -151 -65
-157 -3 -7 40 -59 96 -115 55 -57 100 -107 99 -113 -1 -5 -40 -26 -87 -46
-195 -82 -399 -227 -634 -448 -71 -67 -224 -232 -265 -286 -59 -78 -110 -150
-190 -267 -110 -161 -129 -188 -150 -213 -9 -11 -37 -47 -61 -80 -242 -326
-586 -634 -945 -844 -99 -58 -320 -167 -360 -177 -41 -10 -40 -23 1 -18 135
19 288 61 448 122 73 28 348 162 423 207 122 72 234 142 290 181 34 24 62 40
62 37 0 -13 -212 -287 -330 -428 -75 -89 -84 -100 -145 -170 -187 -217 -494
-529 -660 -672 -27 -24 -46 -43 -43 -43 24 0 333 201 475 307 142 108 304 231
329 252 17 14 40 33 50 41 23 17 110 87 139 111 11 9 58 48 105 85 47 38 94
76 105 86 11 9 54 44 95 79 41 34 100 83 130 109 184 157 287 246 298 257 7 7
17 13 22 13 10 0 3 -11 -108 -166 -162 -228 -213 -302 -327 -474 -160 -243
-226 -351 -335 -555 l-42 -80 98 105 c143 153 465 474 568 566 49 43 98 88
110 99 12 11 91 77 176 145 192 156 170 137 270 215 279 214 484 400 630 571
53 61 195 252 225 301 6 10 13 22 18 27 4 6 22 34 39 61 17 28 45 73 63 100
55 87 103 179 116 223 7 23 15 42 19 42 3 0 50 -45 105 -100 54 -55 104 -100
112 -100 12 0 135 49 248 100 22 10 87 39 144 64 57 26 153 72 214 102 l110
56 25 -19 c84 -63 28 -240 -167 -532 -110 -165 -123 -184 -135 -197 -6 -6 -22
-26 -36 -44 -33 -44 -155 -195 -194 -241 -17 -19 -42 -49 -55 -65 -38 -46
-170 -193 -233 -259 -109 -115 -104 -104 -63 -157 l20 -25 50 31 c126 77 345
229 514 355 62 48 126 95 141 106 15 11 56 45 91 75 301 260 497 479 608 681
68 125 121 296 121 394 0 61 -18 140 -47 204 -13 30 -20 58 -16 61 5 4 49 35
98 70 259 183 443 338 666 560 206 205 263 270 454 515 153 196 327 491 466
790 15 33 35 71 43 85 25 42 153 447 190 600 72 298 107 576 105 838 l-1 163
-26 11 c-34 14 -326 19 -456 8z"/>
</g>
</svg>
